<svg width="931" height="900" viewBox="0 0 931 900" fill="none" xmlns="http://www.w3.org/2000/svg">
<path d="M392.841 206.827C521.246 90.4083 538.554 -93.9543 692.499 -25.1454C767.081 8.19009 975.617 -77.6903 990.711 8.99726C1007.39 104.763 768.837 282.302 738.513 374.127C682.832 542.73 772.524 649.183 649.959 768.218C573.894 842.093 460.491 859.346 349.049 815.139C290.096 791.753 261.111 759.194 216.52 716.033C171.93 672.871 144.952 551.468 181.549 443.675C212.842 351.507 323.636 269.572 392.841 206.827Z" fill="#FF7200" fill-opacity="0.3"/>
<path d="M354.286 145.052C534.553 -35.4387 551.998 -313.634 776.588 -216.387C885.394 -169.274 1182.35 -307.091 1207.62 -177.237C1235.53 -33.7832 899.062 243.221 859.104 382.67C785.735 638.721 919.282 795.262 747.535 979.453C640.948 1093.76 345.009 1030.66 182.655 968.693C96.7693 935.914 38.5528 867.673 22.1177 785.345C4.23819 695.782 -4.47083 494.089 83.2067 387.436C175.912 274.668 257.129 242.33 354.286 145.052Z" fill="#FF7200" fill-opacity="0.35"/>
</svg>
